<svg fill="none" viewBox="0 0 344.0044860839844 264.61883544921875" height="264.61883544921875" width="344.0044860839844" xmlns:xlink="http://www.w3.org/1999/xlink" xmlns="http://www.w3.org/2000/svg">
<g clip-path="url(#clip-path-OR8USaUT_OzAx4-5und_5)">
<path fill="#00BAAD" d="M0 112.198C23.1012 109.817 34.5989 101.323 57.3297 102.275C80.4574 103.241 92.1667 118.51 114.659 117.014C138.038 115.453 148.345 97.6443 171.989 94.6409C194.217 91.8227 206.389 99.3247 229.319 102.447C252.248 105.57 263.719 107.104 286.648 110.253C309.591 113.402 321.75 121.023 343.978 118.218L344.004 264.619L0 264.619L0 112.198Z">
</path>
<path fill="#00A69A" d="M0 129.716C22.6514 127.507 34.4004 130.788 57.3297 131.463C80.2589 132.137 91.9815 130.364 114.659 133.117C137.84 135.935 149.391 146.718 171.989 145.408C195.262 144.058 206.138 127.454 229.319 126.488C251.997 125.548 263.402 137.033 286.648 140.658C309.26 144.178 321.737 147.697 343.978 144.35L344.004 264.619L0 264.619L0 129.716Z">
</path>
<path fill="#009388" d="M0 155.847C23.0748 159.922 34.2946 167.57 57.3297 168.126C80.1663 168.668 91.8227 162.913 114.659 158.586C137.681 154.233 148.822 148.173 171.989 146.427C194.693 144.72 206.376 149.589 229.319 149.959C252.235 150.33 263.891 146.572 286.648 148.306C309.763 150.065 320.969 158.176 343.978 158.665L344.004 264.619L0 264.619L0 155.847Z">
</path>
<path fill="#007F76" d="M0 185.021C22.7705 186.265 34.4534 180.205 57.3297 180.801C80.325 181.409 91.7698 184.823 114.659 188.038C137.641 191.266 149.285 198.054 171.989 196.929C195.143 195.778 206.045 186.027 229.319 182.336C251.917 178.75 263.693 179.478 286.648 178.763C309.564 178.049 321.089 177.811 343.978 178.79L344.004 264.619L0 264.619L0 185.021Z">
</path>
<path fill="#006C64" d="M0 210.425C23.2203 213.971 34.5195 224.45 57.3297 223.96C80.378 223.471 91.3332 212.079 114.659 207.977C137.192 204.021 149.232 202.433 171.989 203.809C195.103 205.199 206.191 213.098 229.319 214.884C252.049 216.63 264.01 215.731 286.648 212.634C309.882 209.459 320.916 199.814 343.978 199.192L344.004 264.619L0 264.619L0 210.425Z">
</path>
<path fill="#004540" d="M0 229.253C22.6778 226.011 34.9694 222.69 57.3297 225.68C80.8278 228.816 91.2935 242.682 114.659 244.574C137.165 246.4 149.033 238.66 171.989 234.968C194.892 231.277 207.077 223.471 229.319 226.117C252.936 228.922 263.111 246.268 286.648 248.596C308.969 250.806 320.864 240.565 343.978 237.442L344.004 264.619L0 264.619L0 229.253Z">
</path>
</g>
<defs>
<clipPath id="clip-path-OR8USaUT_OzAx4-5und_5">
<path fill="white" d="M2.36946e-05 264.619L344.005 264.619L344.005 5.6026e-06L2.36946e-05 5.6026e-06L2.36946e-05 264.619Z"></path>
</clipPath>
</defs>
</svg>
