<svg fill="none" viewBox="0 0 2311 512" height="512" width="2311" xmlns:xlink="http://www.w3.org/1999/xlink" xmlns="http://www.w3.org/2000/svg">
<rect ry="174.07999999999996" fill="#004540" rx="174.07999999999996" height="512" width="512" y="0" x="0">
</rect>
<rect ry="102.4000244140625" fill="#00BAAD" rx="102.4000244140625" height="414.7200927734375" width="204.800048828125" y="56.320068359375" x="30.72021484375">
</rect>
<rect ry="102.4000244140625" fill="#00BAAD" rx="102.4000244140625" height="307.2000732421875" width="204.800048828125" y="56.320068359375" x="276.47998046875">
</rect>
<rect ry="97.28002166748047" fill="url(#linear_fill_2_10_0)" rx="97.28002166748047" height="194.56004333496094" width="204.800048828125" y="276.47998046875" x="276.47998046875">
</rect>
<g>
<path d="M584.312 276Q584.312 304.32 591.148 329.125L710.484 203.148Q701.109 185.57 687.34 176.195Q673.57 166.82 655.211 166.82Q620.836 166.82 602.574 196.02Q584.312 225.219 584.312 276ZM600.328 350.805Q619.664 385.18 655.211 385.18Q688.805 385.18 707.359 355.98Q725.914 326.781 725.914 276Q725.914 261.938 724.156 249.34Q722.398 236.742 719.273 225.219L600.328 350.805ZM557.555 276Q557.555 250.414 563.023 226.586Q568.492 202.758 580.016 184.398Q591.539 166.039 610.191 155.004Q628.844 143.969 655.211 143.969Q681.578 143.969 700.23 155.004Q718.883 166.039 730.602 184.398Q742.32 202.758 747.594 226.586Q752.867 250.414 752.867 276Q752.867 301.586 747.594 325.414Q742.32 349.242 730.797 367.406Q719.273 385.57 700.621 396.605Q681.969 407.641 655.211 407.641Q628.453 407.641 609.801 396.605Q591.148 385.57 579.527 367.406Q567.906 349.242 562.73 325.414Q557.555 301.586 557.555 276ZM954.82 214.281Q954.82 224.828 952.965 233.227Q951.109 241.625 946.324 250.219Q941.539 258.812 933.727 268.383Q925.914 277.953 914 290.258L825.133 380.297L932.75 380.297L932.75 330.297L955.602 330.297L955.602 403.148L789.977 403.148L789.977 379.516L889.195 278.734Q896.812 271.117 903.746 263.5Q910.68 255.883 916.148 248.07Q921.617 240.258 924.742 231.859Q927.867 223.461 927.867 214.281Q927.867 190.844 912.34 178.832Q896.812 166.82 873.961 166.82Q841.93 166.82 825.523 184.594Q809.117 202.367 809.117 235.961L784.312 235.961Q784.312 192.797 807.359 168.383Q830.406 143.969 873.961 143.969Q890.367 143.969 904.918 148.754Q919.469 153.539 930.699 162.523Q941.93 171.508 948.375 184.496Q954.82 197.484 954.82 214.281ZM1173.18 403.148L1010.29 403.148L1010.29 148.266L1173.18 148.266L1173.18 171.117L1037.05 171.117L1037.05 262.328L1137.44 262.328L1137.44 285.18L1037.05 285.18L1037.05 380.297L1173.18 380.297L1173.18 403.148ZM1391.54 403.148L1364.59 403.148L1364.59 290.844Q1364.59 266.43 1354.04 252.953Q1343.49 239.477 1319.86 239.477Q1305.02 239.477 1293 246.312Q1280.99 253.148 1272.59 264.574Q1264.2 276 1259.8 290.746Q1255.41 305.492 1255.41 321.508L1255.41 403.148L1228.65 403.148L1228.65 221.117L1255.41 221.117L1255.41 266.82Q1274.74 216.82 1324.35 216.82Q1391.54 216.82 1391.54 290.844L1391.54 403.148ZM1609.9 401.195Q1609.9 419.945 1603.45 434.594Q1597.01 449.242 1585.39 459.398Q1573.77 469.555 1558.04 474.926Q1542.32 480.297 1522.98 480.297Q1495.84 480.297 1476.79 470.141Q1457.75 459.984 1443.88 440.844L1462.63 426.391Q1471.03 439.086 1486.85 447.68Q1502.67 456.273 1522.98 456.273Q1550.72 456.273 1566.83 442.309Q1582.95 428.344 1582.95 401.977L1582.95 382.445Q1559.12 403.539 1528.65 403.539Q1485.88 403.539 1461.46 379.125Q1437.05 354.711 1437.05 312.328Q1437.05 291.625 1443.39 274.145Q1449.74 256.664 1461.56 243.871Q1473.38 231.078 1490.37 223.949Q1507.36 216.82 1528.65 216.82Q1543.49 216.82 1557.46 221.996Q1571.42 227.172 1582.95 237.523L1582.95 221.117L1609.9 221.117L1609.9 401.195ZM1582.95 263.5Q1571.42 250.805 1557.65 245.141Q1543.88 239.477 1528.65 239.477Q1512.63 239.477 1500.43 245.141Q1488.22 250.805 1480.21 260.57Q1472.2 270.336 1468 283.715Q1463.8 297.094 1463.8 312.328Q1463.8 343.578 1480.02 362.133Q1496.23 380.688 1528.65 380.688Q1543.88 380.688 1557.65 374.926Q1571.42 369.164 1582.95 356.273L1582.95 263.5ZM1764.98 184.789L1728.65 184.789L1728.65 148.266L1764.98 148.266L1764.98 184.789ZM1801.3 403.148L1692.12 403.148L1692.12 380.297L1733.34 380.297L1733.34 243.969L1692.12 243.969L1692.12 221.117L1760.29 221.117L1760.29 380.297L1801.3 380.297L1801.3 403.148ZM2046.62 403.148L2019.66 403.148L2019.66 290.844Q2019.66 266.43 2009.12 252.953Q1998.57 239.477 1974.94 239.477Q1960.09 239.477 1948.08 246.312Q1936.07 253.148 1927.67 264.574Q1919.27 276 1914.88 290.746Q1910.48 305.492 1910.48 321.508L1910.48 403.148L1883.73 403.148L1883.73 221.117L1910.48 221.117L1910.48 266.82Q1929.82 216.82 1979.43 216.82Q2046.62 216.82 2046.62 290.844L2046.62 403.148ZM2119.27 321.508Q2122.2 350.414 2140.37 367.602Q2158.53 384.789 2187.63 384.789Q2208.14 384.789 2224.16 376.391Q2240.17 367.992 2248.18 355.492L2266.93 368.383Q2253.26 387.523 2234.31 397.582Q2215.37 407.641 2187.63 407.641Q2166.54 407.641 2148.96 400.609Q2131.38 393.578 2118.59 380.98Q2105.8 368.383 2098.77 351Q2091.73 333.617 2091.73 312.328Q2091.73 291.625 2098.08 274.145Q2104.43 256.664 2116.44 243.871Q2128.45 231.078 2145.64 223.949Q2162.83 216.82 2184.12 216.82Q2207.36 216.82 2224.74 224.633Q2242.12 232.445 2253.75 246.215Q2265.37 259.984 2270.93 279.125Q2276.5 298.266 2276.5 321.508L2119.27 321.508ZM2248.18 298.656Q2243.69 268.773 2226.5 254.125Q2209.31 239.477 2184.12 239.477Q2171.23 239.477 2160.29 243.676Q2149.35 247.875 2140.95 255.688Q2132.55 263.5 2126.89 274.535Q2121.23 285.57 2119.66 298.656L2248.18 298.656Z" fill="#00BAAD">
</path>
</g>
<defs>
<linearGradient gradientUnits="userSpaceOnUse" y2="312.40160126968385" x2="374.65293187500004" y1="471.04002380371094" x1="374.65293187500004" id="linear_fill_2_10_0">
<stop stop-color="#00BAAD" offset="0"></stop>
<stop stop-opacity="0" stop-color="#00BAAD" offset="1"></stop>
</linearGradient>
</defs>
</svg>